<svg width="58" height="64" viewBox="0 0 58 64" fill="none" xmlns="http://www.w3.org/2000/svg">
<path d="M47.2612 42.1414C47.2612 45.5229 46.6446 49.7143 40.6786 52.4119C40.1354 52.1658 39.6374 51.9077 39.1795 51.6388C39.2648 50.8884 39.3089 50.1024 39.3089 49.2786V37.5838H34.0979V33.188H40.6786H47.2612V42.1414ZM40.6786 31.197H32.1331V40.9415C32.1331 45.4128 33.6695 48.5263 36.35 50.6949L36.3468 49.3292C34.3869 47.0345 34.0977 44.4004 34.0977 42.1414V39.5897H37.3332V50.7177C37.3332 54.7751 36.2096 59.9421 29.0534 63.1797C22.2521 60.1039 20.8971 55.2843 20.7795 51.3311C23.9875 49.1486 25.8532 45.8703 25.8532 40.9425V39.5897H29.0534H31.0976V37.5838H29.0534H25.8532V37.5822H23.8894V37.5838H18.797V49.2786C18.797 49.6865 18.8078 50.0845 18.8294 50.4736V50.4744C19.601 49.9643 20.2392 49.4224 20.7706 48.8566V39.5896H23.8894V42.1413C23.8894 45.5238 23.2717 49.7142 17.3067 52.4118C11.3427 49.7142 10.7251 45.5238 10.7251 42.1413V33.1879H17.3067H23.8894V36.615H25.8532V31.1969H17.3067H8.76126V40.9424C8.76126 47.4443 12.0124 51.0789 17.3067 53.1056C17.9058 52.8763 18.4774 52.6272 19.0225 52.3542C19.9363 58.2636 23.5874 61.7811 29.0533 63.8733C34.5016 61.788 38.1459 58.2845 39.0754 52.4088C39.5852 52.6599 40.1205 52.8912 40.6784 53.1056C45.9747 51.0779 49.2258 47.4443 49.2258 40.9414V31.1969H40.6784L40.6786 31.197Z" fill="#2857AF"/>
<path d="M47.3652 0.116486C46.4191 0.116486 45.5759 0.259404 44.8406 0.5383C44.1033 0.813224 43.4376 1.23107 42.8552 1.77894C42.2718 2.32879 41.8581 2.93224 41.6051 3.61508C41.3522 4.30289 41.2375 5.06018 41.2375 5.87304C41.2375 6.58666 41.3698 7.29729 41.6296 8.03175C41.8904 8.76919 42.2571 9.4034 42.7571 9.91752C43.2572 10.4316 43.8748 10.8207 44.5955 11.0837C45.3161 11.3348 46.0926 11.4559 46.924 11.4559C48.7515 11.4559 50.2565 10.8941 51.4585 9.74383C52.6586 8.59649 53.2478 7.17025 53.2478 5.45122C53.2478 4.9113 53.1968 4.41008 53.0762 3.93765C52.9595 3.46224 52.789 3.04042 52.586 2.69701C52.3193 2.22854 51.9644 1.7978 51.5075 1.40675C51.0477 1.01471 50.4565 0.698096 49.7427 0.463863C49.0251 0.224669 48.2417 0.116486 47.3652 0.116486ZM25.8201 0.265359C25.1054 1.91392 24.6436 2.96797 24.423 3.44139L22.4131 7.78362C21.815 9.03815 21.4787 9.75375 21.3836 9.94233C21.2189 10.2768 21.1042 10.4842 21.016 10.5627C20.9277 10.643 20.8248 10.7046 20.7218 10.7363C20.6169 10.7631 20.3581 10.78 19.9375 10.786V11.2574C20.5532 11.2207 21.1121 11.2078 21.6287 11.2078C22.0788 11.2078 22.7386 11.2207 23.6386 11.2574V10.786C23.1425 10.7804 22.8053 10.7542 22.6092 10.7116C22.4866 10.6858 22.3974 10.6282 22.3396 10.5627C22.2964 10.5151 22.2905 10.4565 22.2905 10.389C22.2905 10.2262 22.3572 9.97413 22.5111 9.61981L23.369 7.63479H27.9771L28.982 9.99199C29.0555 10.1706 29.0801 10.3255 29.0801 10.4386C29.0801 10.5091 29.0536 10.5637 29.0066 10.6123C28.9625 10.66 28.8909 10.7086 28.7615 10.7364C28.635 10.7602 28.2761 10.7731 27.683 10.786V11.2574L30.2321 11.2078C30.5615 11.2078 31.142 11.2208 31.9724 11.2574V10.786C31.5508 10.7804 31.2841 10.7434 31.1635 10.6868C31.0449 10.6301 30.9468 10.519 30.8449 10.3394C30.6625 10.0168 30.2968 9.23173 29.7419 7.98216L26.3349 0.265398H25.8201L25.8201 0.265359ZM4.69171 0.364611V0.885681C5.31919 0.894653 5.70843 0.91744 5.84373 0.960079C5.97805 1.0047 6.07707 1.06826 6.13786 1.15858C6.1977 1.2489 6.22022 1.54566 6.2359 2.02703C6.26037 2.69201 6.28493 3.36989 6.28493 4.06167V7.58508C6.26532 8.92993 6.24179 9.66141 6.2359 9.7686C6.21826 10.1597 6.17708 10.4098 6.11335 10.513C6.06041 10.5874 5.98099 10.642 5.84373 10.6867C5.70451 10.7333 5.31821 10.7512 4.69171 10.7611V11.2573L6.70161 11.2077L8.61346 11.2573V10.7611C7.9801 10.7511 7.59577 10.7343 7.46145 10.6867C7.32615 10.643 7.2281 10.5805 7.16732 10.4882C7.10457 10.3979 7.06045 10.1041 7.04476 9.61972C7.00555 8.9607 6.99574 8.28182 6.99574 7.58508V2.22553L10.7949 9.84304L11.3587 10.9596C11.4175 11.0708 11.4606 11.2296 11.5303 11.4311H11.8489C12.2038 10.5924 12.4577 9.97604 12.6332 9.59491C12.8793 9.06888 13.2333 8.37313 13.6627 7.51064L16.4079 1.95259V7.58508C16.3883 8.93192 16.3648 9.66141 16.3589 9.7686C16.3481 10.1626 16.3049 10.4098 16.2363 10.513C16.1883 10.5884 16.104 10.643 15.9667 10.6867C15.8255 10.7343 15.4451 10.7512 14.8147 10.7611V11.2573C16.0295 11.2137 16.8128 11.2077 17.1678 11.2077C17.607 11.2077 18.3521 11.2133 19.4228 11.2573V10.7611C18.7923 10.7511 18.4286 10.7333 18.2953 10.6867C18.1609 10.6421 18.0619 10.5785 18.0011 10.4882C17.9413 10.3979 17.8943 10.1021 17.8786 9.61972C17.8511 8.9607 17.8296 8.28182 17.8296 7.58508V4.06167C17.8511 2.71682 17.8717 1.98038 17.8786 1.87815C17.8894 1.48908 17.9306 1.235 18.0011 1.13377C18.0531 1.05337 18.1364 1.00474 18.2708 0.960079C18.4061 0.91744 18.7894 0.894574 19.4228 0.885681V0.364611C18.6267 0.404312 18.0609 0.414237 17.707 0.414237C17.3187 0.414237 16.8452 0.404308 16.2854 0.364611C16.0354 1.00081 15.5324 2.07272 14.7902 3.56546L12.0695 9.04907L9.05466 3.0692C8.66543 2.30199 8.22423 1.39186 7.75558 0.364611C7.28399 0.404312 6.80063 0.414237 6.28493 0.414237C5.77706 0.414237 5.24762 0.404308 4.69171 0.364611ZM29.8889 0.364611V0.860866C30.5223 0.871823 30.736 0.893578 30.8939 0.935263C31.0537 0.977901 31.1841 1.05238 31.286 1.13377C31.4096 1.236 31.5998 1.48412 31.8498 1.87815L33.8842 4.78124C34.3499 5.53158 34.6195 5.96828 34.6931 6.09632C34.798 6.27894 34.8989 6.48737 35.0117 6.71664V7.60989C34.9872 8.95077 34.9686 9.6624 34.9627 9.7686C34.947 10.1587 34.9078 10.4108 34.8401 10.513C34.7931 10.5874 34.7068 10.641 34.5705 10.6867C34.4342 10.7313 34.0607 10.774 33.443 10.7859V11.2574C34.4332 11.2207 35.2166 11.2077 35.8205 11.2077C36.448 11.2077 37.2108 11.2207 38.0756 11.2574V10.7859C37.4549 10.774 37.0784 10.7313 36.9481 10.6867C36.8167 10.641 36.7137 10.5775 36.6539 10.4882C36.5931 10.3969 36.5471 10.1041 36.5314 9.61972C36.4991 8.96467 36.4823 8.30465 36.4823 7.60989V7.01439C36.4823 6.86948 36.5216 6.72755 36.5804 6.56776C36.6363 6.40598 36.8931 5.96431 37.3402 5.25269L39.6688 1.87815C39.956 1.48412 40.1717 1.236 40.306 1.13377C40.4139 1.05238 40.5345 0.977941 40.6982 0.935263C40.859 0.893578 41.0982 0.871743 41.7277 0.860866V0.364611C40.6845 0.397324 40.3933 0.414237 39.8648 0.414237C39.3178 0.414237 38.7403 0.397324 37.7569 0.364611V0.860866C38.3707 0.871823 38.8295 0.893578 38.9334 0.935263C39.0374 0.977901 39.0825 1.04246 39.0805 1.13377C39.0766 1.22607 38.9285 1.51688 38.6148 2.00221L36.0657 5.89781L33.6881 2.00221C33.4155 1.51688 33.292 1.22607 33.2959 1.13377C33.3014 1.04246 33.3597 0.977941 33.4675 0.935263C33.5763 0.893578 34.1048 0.871743 34.7176 0.860866V0.364611C33.7332 0.397324 32.3263 0.414237 31.7763 0.414237C31.2507 0.414237 30.9331 0.397324 29.8889 0.364611ZM47.022 0.761614C47.6034 0.761614 48.1368 0.86285 48.6397 1.03455C49.1417 1.20725 49.5496 1.39881 49.8653 1.65487C50.179 1.90896 50.4702 2.20969 50.6987 2.54813C50.9261 2.88559 51.0997 3.26869 51.2379 3.68952C51.4595 4.37832 51.5811 5.13461 51.5811 5.94748C51.5811 6.90525 51.4252 7.74888 51.1153 8.47838C50.8055 9.20688 50.3222 9.76368 49.6937 10.1656C49.0633 10.5656 48.3397 10.7612 47.4877 10.7612C46.874 10.7612 46.3014 10.6828 45.7965 10.4882C45.2925 10.2917 44.8366 9.96218 44.4239 9.54533C44.015 9.13046 43.6954 8.62229 43.4434 8.00694C43.2895 7.64268 43.1522 7.21988 43.0513 6.71667C42.9522 6.21446 42.9042 5.71523 42.9042 5.22791C42.9042 4.35946 43.0483 3.58233 43.3699 2.89551C43.6895 2.20869 44.1817 1.67075 44.816 1.30749C45.4504 0.945229 46.1808 0.761614 47.022 0.761614ZM25.673 2.37444L27.6584 6.98961H23.6386L25.673 2.37444ZM6.75063 14.756C4.70936 14.756 3.08086 15.2959 1.89748 16.3688C0.718011 17.4417 0.13269 18.7836 0.13269 20.4133C0.13269 21.0594 0.225831 21.6589 0.40231 22.1998C0.576827 22.7407 0.828801 23.2499 1.16215 23.7134C1.49942 24.1759 1.93277 24.5848 2.46122 24.954C2.98968 25.3252 3.59657 25.5982 4.29954 25.7977C5.0084 25.9972 5.78 26.1202 6.60357 26.1202C7.30262 26.1202 7.94676 26.0319 8.53993 25.8969C9.13407 25.7629 9.7341 25.5545 10.3537 25.2518L10.6724 24.5322L10.5498 24.3585C10.1312 24.6394 9.69684 24.8488 9.27525 24.9789C8.65169 25.1704 7.99481 25.2766 7.26536 25.2766C5.65156 25.2766 4.3466 24.8042 3.36813 23.8623C2.38573 22.9214 1.89748 21.6659 1.89748 20.1156C1.9014 19.2283 2.03474 18.4918 2.28965 17.9072C2.54554 17.3216 2.87007 16.8472 3.27008 16.4681C3.67206 16.087 4.13875 15.823 4.6672 15.6493C5.19174 15.4756 5.82118 15.3614 6.57905 15.3515C7.59184 15.3515 8.36051 15.4805 8.88308 15.7237C9.40957 15.9689 9.71351 16.3371 9.76547 16.8403V17.7583H10.2557C10.286 17.1827 10.3429 16.6795 10.4273 16.2448C10.4852 15.9738 10.5577 15.682 10.6724 15.4011C10.54 15.3733 10.1851 15.3039 9.59389 15.153C9.00171 15.0021 8.50953 14.884 8.09873 14.8304C7.68499 14.7788 7.23398 14.756 6.75063 14.756V14.756ZM53.9586 14.756C51.9154 14.756 50.3094 15.2959 49.13 16.3688C47.9485 17.4417 47.3652 18.7836 47.3652 20.4133C47.3652 21.0594 47.4338 21.6589 47.6103 22.1998C47.7868 22.7407 48.0348 23.2499 48.3701 23.7134C48.7054 24.1759 49.1398 24.5848 49.6692 24.954C50.1986 25.3252 50.83 25.5982 51.532 25.7977C52.2409 25.9972 52.989 26.1202 53.8115 26.1202C54.5106 26.1202 55.1783 26.0319 55.7724 25.8969C56.3675 25.7629 56.9666 25.5545 57.5862 25.2518L57.9049 24.5322L57.7578 24.3585C57.3392 24.6394 56.9293 24.8488 56.5077 24.9789C55.8842 25.1704 55.2008 25.2766 54.4733 25.2766C52.8595 25.2766 51.5565 24.8042 50.5761 23.8623C49.5937 22.9214 49.1055 21.6659 49.1055 20.1156C49.1109 19.2283 49.2427 18.4918 49.4976 17.9072C49.7545 17.3216 50.0996 16.8472 50.5026 16.4681C50.9046 16.087 51.3467 15.823 51.8752 15.6493C52.3997 15.4756 53.0527 15.3614 53.8115 15.3515C54.8224 15.3515 55.593 15.4805 56.1156 15.7237C56.6421 15.9689 56.9195 16.3371 56.9734 16.8403V17.7583H57.4637C57.497 17.1827 57.5509 16.6795 57.6352 16.2448C57.6931 15.9738 57.7882 15.682 57.9049 15.4011C57.7705 15.3733 57.395 15.3039 56.8019 15.153C56.2097 15.0021 55.7165 14.884 55.3067 14.8304C54.893 14.7788 54.442 14.756 53.9586 14.756V14.756ZM11.9469 14.9545V15.426C12.5656 15.4359 12.9401 15.4577 13.0744 15.5003C13.2058 15.545 13.2843 15.6333 13.3441 15.7237C13.4029 15.817 13.4509 16.1058 13.4666 16.5921C13.497 17.2621 13.5156 17.93 13.5156 18.6268V22.7953C13.5156 22.9313 13.497 23.358 13.4666 24.0607C13.4509 24.5371 13.4167 24.8399 13.3686 24.9788C13.3499 25.0543 13.3225 25.1098 13.2705 25.1525C13.1823 25.2379 12.9568 25.35 12.6332 25.4999V25.8969C13.1578 25.8661 13.6941 25.8473 14.2019 25.8473L18.4423 25.8969C19.0149 25.8969 19.4404 25.883 19.7169 25.8721C19.8453 25.8612 20.0149 25.8394 20.2316 25.7977C20.3424 24.7665 20.4581 23.8832 20.5748 23.1179H20.06L19.7414 24.3834C19.6904 24.5819 19.6159 24.7734 19.5453 24.9293C18.9463 25.1159 17.8335 25.2022 16.3344 25.2022C15.7383 25.2022 15.6648 25.1843 15.0598 25.1526C15.0285 24.8122 15.0108 24.3804 15.0108 23.8375V18.6268C15.0343 17.2691 15.052 16.5465 15.0598 16.4433C15.0765 16.0483 15.1187 15.8012 15.1824 15.6989C15.2344 15.6175 15.3402 15.5451 15.4765 15.5004C15.6128 15.4578 15.9736 15.4359 16.604 15.426V14.9546C15.4226 14.9853 14.6627 14.9794 14.3245 14.9794C14.0157 14.9794 13.2382 14.9849 11.9469 14.9546V14.9545ZM21.5797 14.9545V15.426C22.1954 15.4359 22.5749 15.4577 22.7072 15.5003C22.8396 15.543 22.9396 15.6333 23.0014 15.7237C23.0602 15.817 23.0817 16.1058 23.0994 16.5921C23.1288 17.2611 23.1484 17.929 23.1484 18.6268V22.1998C23.1249 23.5565 23.1053 24.2999 23.0994 24.4081C23.0817 24.8012 23.0632 25.0513 23.0014 25.1525C22.9474 25.229 22.8435 25.2805 22.7072 25.3262C22.5729 25.3708 22.1935 25.3897 21.5797 25.4006V25.8968L24.0308 25.8472C24.3847 25.8472 25.1132 25.866 26.2368 25.8968V25.4006C25.6074 25.3897 25.2181 25.3708 25.0848 25.3262C24.9505 25.2805 24.8514 25.218 24.7906 25.1277C24.7288 25.0344 24.7083 24.7466 24.6926 24.2593C24.6779 23.5953 24.6681 22.9035 24.6681 22.1998L24.7172 16.4432C24.7319 16.0472 24.7525 15.8001 24.8152 15.6989C24.8672 15.6155 24.975 15.543 25.1093 15.5003C25.2417 15.4577 25.6133 15.4358 26.2368 15.426V14.9545C25.2133 14.9863 24.4348 14.9793 23.9083 14.9793C23.3612 14.9793 22.5827 14.9864 21.5798 14.9545H21.5797ZM27.928 14.9545V15.426C28.3565 15.4299 28.6369 15.4527 28.7614 15.4756C28.8879 15.5003 28.985 15.5431 29.0801 15.6244C29.232 15.7535 29.332 15.8805 29.3742 15.9718C29.3958 16.0215 29.3987 16.1207 29.3987 16.2944V22.572C29.3987 23.0643 29.4057 23.6529 29.3742 24.3337C29.3516 24.7694 29.3056 25.0255 29.2516 25.1277C29.2193 25.1972 29.1565 25.2488 29.0801 25.2766C28.9055 25.358 28.5585 25.3957 28.0016 25.4007V25.8969C28.7193 25.8661 29.3722 25.8473 29.987 25.8473C30.5438 25.8473 31.0654 25.8661 31.5311 25.8969V25.4007C30.9743 25.3959 30.6046 25.353 30.4282 25.2766C30.3517 25.2518 30.2948 25.2051 30.2566 25.1277C30.2115 25.0305 30.1772 24.7645 30.1585 24.3337C30.1223 23.64 30.1095 23.0325 30.1095 22.5224V16.5425L35.747 23.1675L36.7765 24.433C36.9833 24.6841 37.2941 25.0573 37.7324 25.5496C37.8971 25.7302 38.0118 25.8185 38.051 25.8473C38.0775 25.8691 38.1432 25.9654 38.1736 25.9714L38.3697 26.1699H39.154C39.1227 24.1193 39.105 22.7278 39.105 21.9765V18.2546C39.105 17.7633 39.1227 17.1896 39.154 16.5177C39.1727 16.0721 39.2227 15.7962 39.2766 15.6989C39.3069 15.6254 39.3491 15.5818 39.4236 15.55C39.5982 15.4795 39.9707 15.4299 40.5266 15.426V14.9545C40.0305 14.9852 39.4658 14.9793 38.8599 14.9793C38.2128 14.9793 37.601 14.9848 36.9726 14.9545V15.426C37.5285 15.4299 37.8746 15.4795 38.051 15.55C38.1265 15.5818 38.1844 15.6294 38.2226 15.6989C38.2687 15.8011 38.2991 16.0651 38.3207 16.4929C38.351 17.1638 38.3697 17.7494 38.3697 18.2546V23.8623C38.1697 23.6677 37.9246 23.4067 37.6344 23.0683C37.1726 22.5571 36.5774 21.8525 35.8205 20.9592L33.443 18.1554L31.8253 16.1951C31.6164 15.9242 31.289 15.5242 30.8448 14.9545C30.4468 14.9852 30.0458 14.9793 29.6438 14.9793C29.4085 14.9793 28.8428 14.9848 27.928 14.9545ZM41.8993 14.9545V15.426C42.5199 15.4359 42.8905 15.4577 43.0268 15.5003C43.1581 15.543 43.2621 15.6333 43.3209 15.7237C43.3807 15.817 43.4023 16.1058 43.4189 16.5921C43.4503 17.2611 43.4679 17.929 43.4679 18.6268V22.1998C43.4444 23.5565 43.4298 24.2999 43.4189 24.4081C43.4023 24.8012 43.3846 25.0513 43.3209 25.1525C43.2679 25.229 43.1611 25.2805 43.0268 25.3262C42.8895 25.3708 42.5179 25.3897 41.8993 25.4006V25.8968L44.3258 25.8472C44.6827 25.8472 45.4347 25.866 46.5563 25.8968V25.4006C45.9269 25.3897 45.5386 25.3708 45.4043 25.3262C45.27 25.2805 45.17 25.218 45.1102 25.1277C45.0494 25.0344 45.0259 24.7466 45.0121 24.2593C44.9955 23.5953 44.9877 22.9035 44.9877 22.1998V18.6268C45.0112 17.27 45.0043 16.5445 45.0121 16.4432C45.0268 16.0472 45.071 15.8001 45.1347 15.6989C45.1876 15.6155 45.2945 15.543 45.4288 15.5003C45.5612 15.4577 45.9337 15.4358 46.5563 15.426V14.9545C45.5357 14.9863 44.7543 14.9793 44.2278 14.9793C43.6797 14.9793 42.9042 14.9864 41.8993 14.9545Z" fill="#231F20"/>
</svg>
