<svg width="140" height="22" viewBox="0 0 140 22" fill="none" xmlns="http://www.w3.org/2000/svg">
<g clip-path="url(#clip0_8264_57)">
<path d="M8.65165 -0.00411987H1.58801C0.709375 -0.00411987 -0.00289917 0.699433 -0.00289917 1.56731V8.54445C-0.00289917 9.41233 0.709375 10.1159 1.58801 10.1159H8.65165C9.53028 10.1159 10.2426 9.41233 10.2426 8.54445V1.56731C10.2426 0.699433 9.53028 -0.00411987 8.65165 -0.00411987Z" fill="#0960A9"/>
<path d="M20.2364 -0.000274658H13.1727C12.2941 -0.000274658 11.5818 0.703278 11.5818 1.57115V8.5483C11.5818 9.41617 12.2941 10.1197 13.1727 10.1197H20.2364C21.115 10.1197 21.8273 9.41617 21.8273 8.5483V1.57115C21.8273 0.703278 21.115 -0.000274658 20.2364 -0.000274658Z" fill="#0960A9"/>
<path d="M8.65174 11.4363H1.5881C0.709467 11.4363 -0.00280762 12.1399 -0.00280762 13.0078V19.9849C-0.00280762 20.8528 0.709467 21.5563 1.5881 21.5563H8.65174C9.53037 21.5563 10.2426 20.8528 10.2426 19.9849V13.0078C10.2426 12.1399 9.53037 11.4363 8.65174 11.4363Z" fill="#247C3E"/>
<path d="M20.2364 11.44H13.1727C12.2941 11.44 11.5818 12.1436 11.5818 13.0114V19.9886C11.5818 20.8565 12.2941 21.56 13.1727 21.56H20.2364C21.115 21.56 21.8273 20.8565 21.8273 19.9886V13.0114C21.8273 12.1436 21.115 11.44 20.2364 11.44Z" fill="#247C3E" fill-opacity="0.998242"/>
<path d="M15.3361 4.83533H6.48587C5.60723 4.83533 4.89496 5.53888 4.89496 6.40676V15.1486C4.89496 16.0165 5.60723 16.72 6.48587 16.72H15.3361C16.2147 16.72 16.927 16.0165 16.927 15.1486V6.40676C16.927 5.53888 16.2147 4.83533 15.3361 4.83533Z" fill="white"/>
<path fill-rule="evenodd" clip-rule="evenodd" d="M36.2091 13.0114C35.8273 15.4629 34.1727 16.9086 31.6909 16.9086C28.2545 16.9086 26.7273 13.7657 26.7273 10.8114C26.7273 7.79429 28.2545 4.71429 31.6909 4.71429C34.1727 4.71429 35.8273 6.09715 36.2091 8.61144L33.9182 8.92572C33.6636 7.66858 33.1545 6.60001 31.6909 6.60001C29.6545 6.60001 29.2091 9.30287 29.2091 10.8114C29.2091 12.32 29.6545 15.0229 31.6909 15.0229C33.1545 15.0229 33.7273 13.8914 33.9182 12.6972L36.2091 13.0114Z" fill="#343536"/>
<path fill-rule="evenodd" clip-rule="evenodd" d="M37.6091 4.84H39.9V16.72H37.6091V4.84Z" fill="#343536"/>
<path fill-rule="evenodd" clip-rule="evenodd" d="M43.5909 13.0115C43.5273 14.0172 44.1 15.2743 45.3091 15.2743C46.0091 15.2743 46.5182 14.8343 46.7727 14.0172L48.9363 14.2686C48.4273 15.9657 46.7727 16.9086 45.1818 16.9086C42.6363 16.9086 41.3636 14.7086 41.3636 12.4457C41.3636 10.1829 42.6363 7.98288 45.1818 7.98288C47.3454 7.98288 49 8.98859 48.9363 12.9486H43.5909V13.0115ZM46.6454 11.5657C46.6454 10.6229 46.2636 9.68002 45.1818 9.68002C44.1636 9.68002 43.7182 10.6857 43.7182 11.5657H46.6454Z" fill="#343536"/>
<path fill-rule="evenodd" clip-rule="evenodd" d="M54.5363 16.72H52.1182L49.4454 8.17145H51.8L53.3273 14.4572H53.3909L54.8545 8.17145H57.1454L54.5363 16.72Z" fill="#343536"/>
<path fill-rule="evenodd" clip-rule="evenodd" d="M59.8182 13.0115C59.7545 14.0172 60.3273 15.2743 61.5364 15.2743C62.2364 15.2743 62.7455 14.8343 63 14.0172L65.1636 14.2686C64.6545 15.9657 63 16.9086 61.4091 16.9086C58.8636 16.9086 57.5909 14.7086 57.5909 12.4457C57.5909 10.1829 58.8636 7.98288 61.4091 7.98288C63.5727 7.98288 65.2273 8.98859 65.1636 12.9486H59.8182V13.0115ZM62.8727 11.5657C62.8727 10.6229 62.4909 9.68002 61.4091 9.68002C60.3909 9.68002 59.9455 10.6857 59.9455 11.5657H62.8727Z" fill="#343536"/>
<path fill-rule="evenodd" clip-rule="evenodd" d="M66.6273 4.84H68.9182V16.72H66.6273V4.84Z" fill="#343536"/>
<path fill-rule="evenodd" clip-rule="evenodd" d="M75.4727 15.9029C74.6455 16.4686 74.0727 16.8457 72.9909 16.8457C71.4636 16.8457 70.2545 15.84 70.2545 14.3315C70.2545 11.9429 73.4364 11.44 75.2818 11.2515C75.4091 10.0572 75.0273 9.61717 74.2 9.61717C73.5 9.61717 72.9273 9.93145 72.8 10.6857L70.6364 10.3715C71.1455 8.54859 72.3545 7.98288 74.2 7.98288C76.5545 7.98288 77.5727 9.05145 77.5727 10.6857V14.8972C77.5727 15.5257 77.5727 16.0915 77.8909 16.6572H75.7273C75.5364 16.3429 75.4727 15.9029 75.4727 15.9029ZM75.3455 12.8229C74.3909 13.0115 72.5455 13.0743 72.5455 14.3315C72.5455 14.8343 72.8 15.2743 73.3091 15.2743C74.2636 15.2743 74.9 14.7086 75.3455 14.1429V12.8229Z" fill="#343536"/>
<path fill-rule="evenodd" clip-rule="evenodd" d="M81.7727 9.05145C82.4727 8.48574 83.3636 7.98288 84.3818 7.98288C85.3364 7.98288 86.6727 8.54859 86.6727 10.6229V16.6572H84.3818V11.5029C84.3818 10.8115 84.4454 9.74288 83.4273 9.74288C82.7909 9.74288 82.2182 10.2457 81.8364 10.6857V16.6572H79.5454V8.17145H81.8364V9.05145H81.7727Z" fill="#343536"/>
<path fill-rule="evenodd" clip-rule="evenodd" d="M95.7727 15.2114V4.84H93.4818V8.98857C92.8455 8.42285 92.2727 7.98285 91.3818 7.98285C90.1091 7.98285 88.2 9.05142 88.2 12.1943C88.2 15.7771 89.7909 16.8457 91.5727 16.8457C92.5273 16.8457 93.0364 16.5314 93.7364 15.9029C93.7364 15.9029 93.8 16.3429 93.9909 16.6571H96.0909C95.8364 16.2171 95.7727 15.7143 95.7727 15.2114ZM93.4818 14.0171C93.1 14.52 92.6546 15.0229 92.0182 15.0229C90.6182 15.0229 90.4273 13.3886 90.4273 12.3829C90.4273 11.44 90.6818 9.86857 91.9546 9.86857C92.5909 9.86857 93.1 10.3086 93.4818 10.8114V14.0171Z" fill="#343536"/>
<path fill-rule="evenodd" clip-rule="evenodd" d="M110.155 13.0114C109.773 15.4629 108.118 16.9086 105.636 16.9086C102.2 16.9086 100.673 13.7657 100.673 10.8114C100.673 7.79429 102.2 4.71429 105.636 4.71429C108.118 4.71429 109.773 6.09715 110.155 8.61144L107.864 8.92572C107.609 7.66858 107.1 6.60001 105.636 6.60001C103.6 6.60001 103.155 9.30287 103.155 10.8114C103.155 12.32 103.6 15.0229 105.636 15.0229C107.1 15.0229 107.673 13.8914 107.864 12.6972L110.155 13.0114Z" fill="#343536"/>
<path fill-rule="evenodd" clip-rule="evenodd" d="M111.555 4.84H113.845V16.72H111.555V4.84Z" fill="#343536"/>
<path fill-rule="evenodd" clip-rule="evenodd" d="M118.045 16.72H115.755V8.17142H118.045V16.72Z" fill="#343536"/>
<path fill-rule="evenodd" clip-rule="evenodd" d="M118.045 6.91428H115.755V4.84H118.045V6.91428Z" fill="#343536"/>
<path fill-rule="evenodd" clip-rule="evenodd" d="M122.182 9.05145C122.882 8.48574 123.773 7.98288 124.727 7.98288C125.682 7.98288 127.018 8.54859 127.018 10.6229V16.6572H124.727V11.5029C124.727 10.8115 124.791 9.74288 123.773 9.74288C123.136 9.74288 122.564 10.2457 122.182 10.6857V16.6572H119.891V8.17145H122.182V9.05145Z" fill="#343536"/>
<path fill-rule="evenodd" clip-rule="evenodd" d="M131.155 16.72H128.864V8.17142H131.155V16.72Z" fill="#343536"/>
<path fill-rule="evenodd" clip-rule="evenodd" d="M131.155 6.91428H128.864V4.84H131.155V6.91428Z" fill="#343536"/>
<path fill-rule="evenodd" clip-rule="evenodd" d="M140 13.9543C139.618 15.7143 138.345 16.9086 136.373 16.9086C133.827 16.9086 132.555 14.7086 132.555 12.4457C132.555 10.1829 133.827 7.98288 136.373 7.98288C138.282 7.98288 139.618 9.11431 140 10.9372L137.9 11.1886C137.773 10.4972 137.518 9.61717 136.373 9.61717C135.164 9.61717 134.909 11.3143 134.909 12.3829C134.909 13.4515 135.1 15.1486 136.373 15.1486C137.518 15.1486 137.709 14.3943 137.9 13.5772L140 13.9543Z" fill="#343536"/>
</g>
<defs>
<clipPath id="clip0_8264_57">
<rect width="140" height="22" fill="white"/>
</clipPath>
</defs>
</svg>
