<svg width="40" height="40" viewBox="0 0 40 40" fill="none" xmlns="http://www.w3.org/2000/svg">
<rect opacity="0.1" width="40" height="40" rx="10" fill="#027DB0"/>
<path d="M27.1695 12.6836H12.8305C11.2699 12.6836 10 13.9535 10 15.5145V24.4855C10 26.0465 11.2699 27.3164 12.8305 27.3164H27.1695C28.7301 27.3164 30 26.0465 30 24.4855V15.5145C30 13.9535 28.7301 12.6836 27.1695 12.6836ZM17.2582 17.1871L14.2805 20.1648L16.9285 22.8129C17.1574 23.0418 17.1574 23.4129 16.9285 23.6414C16.7 23.8703 16.3289 23.8703 16.1 23.6414L13.0375 20.5789C12.8086 20.35 12.8086 19.9793 13.0375 19.7504L16.4293 16.3586C16.6582 16.1297 17.0293 16.1297 17.2582 16.3586C17.4867 16.5871 17.4867 16.9582 17.2582 17.1871ZM22.0914 15.8086L18.993 24.5816C18.8852 24.8871 18.5504 25.0469 18.2453 24.9391C17.9402 24.8312 17.7801 24.4965 17.8879 24.1914L20.9863 15.4184C21.0941 15.1133 21.4285 14.9531 21.734 15.0609C22.0391 15.1687 22.1992 15.5035 22.0914 15.8086ZM26.9625 20.2496L23.5707 23.6414C23.3418 23.8703 22.9707 23.8703 22.7418 23.6414C22.5133 23.4129 22.5133 23.0418 22.7418 22.8129L25.7195 19.8352L23.0715 17.1871C22.8426 16.9582 22.8426 16.5871 23.0715 16.3586C23.3 16.1297 23.6711 16.1297 23.9 16.3586L26.9625 19.4211C27.1914 19.65 27.1914 20.0207 26.9625 20.2496Z" fill="#027DB0"/>
</svg>
