<svg width="40" height="40" viewBox="0 0 40 40" fill="none" xmlns="http://www.w3.org/2000/svg">
<rect opacity="0.1" width="40" height="40" rx="10" fill="#027DB0"/>
<path d="M14.1406 30H25.8594C26.8287 30 27.6172 29.2115 27.6172 28.2422V15.8594H23.5156C22.5463 15.8594 21.7578 15.0709 21.7578 14.1016V10H14.1406C13.1713 10 12.3828 10.7885 12.3828 11.7578V28.2422C12.3828 29.2115 13.1713 30 14.1406 30ZM16.4844 18.2422H23.5156C23.8395 18.2422 24.1016 18.5043 24.1016 18.8281C24.1016 19.152 23.8395 19.4141 23.5156 19.4141H16.4844C16.1605 19.4141 15.8984 19.152 15.8984 18.8281C15.8984 18.5043 16.1605 18.2422 16.4844 18.2422ZM16.4844 20.5859H23.5156C23.8395 20.5859 24.1016 20.848 24.1016 21.1719C24.1016 21.4957 23.8395 21.7578 23.5156 21.7578H16.4844C16.1605 21.7578 15.8984 21.4957 15.8984 21.1719C15.8984 20.848 16.1605 20.5859 16.4844 20.5859ZM16.4844 22.9297H23.5156C23.8395 22.9297 24.1016 23.1918 24.1016 23.5156C24.1016 23.8395 23.8395 24.1016 23.5156 24.1016H16.4844C16.1605 24.1016 15.8984 23.8395 15.8984 23.5156C15.8984 23.1918 16.1605 22.9297 16.4844 22.9297ZM16.4844 25.2734H21.1719C21.4957 25.2734 21.7578 25.5355 21.7578 25.8594C21.7578 26.1832 21.4957 26.4453 21.1719 26.4453H16.4844C16.1605 26.4453 15.8984 26.1832 15.8984 25.8594C15.8984 25.5355 16.1605 25.2734 16.4844 25.2734Z" fill="#027DB0"/>
<path d="M23.5156 14.6875H27.2739L22.9297 10.3433V14.1016C22.9297 14.4248 23.1923 14.6875 23.5156 14.6875Z" fill="#027DB0"/>
</svg>
